<svg width="117" height="34" viewBox="0 0 117 34" fill="none" xmlns="http://www.w3.org/2000/svg">
<path d="M51.084 23.1118H52.1444V24.8033H53.1406V25.6348H52.1444V29.5892C52.1444 29.8004 52.2182 29.9418 52.3658 30.0134C52.4473 30.0549 52.5833 30.0757 52.7736 30.0757C52.8241 30.0757 52.8784 30.0757 52.9367 30.0757C52.995 30.0719 53.0629 30.0662 53.1406 30.0587V30.862C53.0202 30.8959 52.894 30.9205 52.7619 30.9355C52.6338 30.9506 52.4939 30.9582 52.3425 30.9582C51.8531 30.9582 51.521 30.8375 51.3462 30.5961C51.1714 30.351 51.084 30.0342 51.084 29.6457V25.6348H50.2393V24.8033H51.084V23.1118Z" fill="#808080"/>
<path d="M56.9483 24.6675C57.3911 24.6675 57.8203 24.7693 58.2359 24.973C58.6515 25.1728 58.968 25.4331 59.1855 25.7536C59.3953 26.0591 59.5351 26.4155 59.605 26.8228C59.6672 27.1019 59.6982 27.5469 59.6982 28.1579H55.1248C55.1442 28.7727 55.2938 29.2667 55.5734 29.6401C55.8531 30.0097 56.2861 30.1945 56.8726 30.1945C57.4203 30.1945 57.8572 30.0191 58.1835 29.6684C58.3699 29.4647 58.502 29.229 58.5796 28.9612H59.6108C59.5836 29.1837 59.4924 29.4326 59.337 29.708C59.1855 29.9795 59.0146 30.202 58.8243 30.3755C58.5058 30.6772 58.1116 30.8809 57.6416 30.9865C57.3892 31.0468 57.1037 31.077 56.7852 31.077C56.0084 31.077 55.3501 30.8036 54.8102 30.2567C54.2703 29.7061 54.0004 28.9367 54.0004 27.9486C54.0004 26.9756 54.2723 26.1855 54.816 25.5783C55.3598 24.9711 56.0706 24.6675 56.9483 24.6675ZM58.6204 27.3489C58.5777 26.9077 58.4786 26.5551 58.3233 26.2911C58.0359 25.8008 57.5562 25.5556 56.8843 25.5556C56.4026 25.5556 55.9987 25.7254 55.6724 26.0648C55.3462 26.4004 55.1734 26.8285 55.1539 27.3489H58.6204Z" fill="#808080"/>
<path d="M63.696 24.6279C64.399 24.6279 64.97 24.7938 65.4089 25.1257C65.8517 25.4576 66.1177 26.029 66.2071 26.8398H65.1875C65.1254 26.4664 64.9836 26.1572 64.7622 25.912C64.5408 25.6631 64.1854 25.5387 63.696 25.5387C63.028 25.5387 62.5503 25.8555 62.2628 26.4891C62.0764 26.9001 61.9832 27.4074 61.9832 28.0108C61.9832 28.618 62.1152 29.129 62.3794 29.5439C62.6435 29.9588 63.0591 30.1662 63.6261 30.1662C64.0611 30.1662 64.4049 30.038 64.6573 29.7815C64.9137 29.5213 65.0904 29.1668 65.1875 28.718H66.2071C66.0905 29.5213 65.7992 30.1096 65.3332 30.483C64.8671 30.8526 64.2709 31.0374 63.5446 31.0374C62.7289 31.0374 62.0784 30.7489 61.5928 30.1718C61.1073 29.591 60.8646 28.8669 60.8646 27.9995C60.8646 26.936 61.1307 26.1082 61.6628 25.516C62.1949 24.9239 62.8726 24.6279 63.696 24.6279Z" fill="#808080"/>
<path d="M67.554 22.5234H68.6027V25.6235C68.8513 25.318 69.0746 25.1031 69.2727 24.9786C69.6106 24.7637 70.032 24.6562 70.537 24.6562C71.4419 24.6562 72.0556 24.9635 72.378 25.5783C72.5528 25.9139 72.6401 26.3797 72.6401 26.9756V30.862H71.5623V27.0435C71.5623 26.5984 71.5041 26.2722 71.3876 26.0648C71.1972 25.7329 70.8399 25.567 70.3156 25.567C69.8806 25.567 69.4863 25.7122 69.1329 26.0026C68.7794 26.293 68.6027 26.8417 68.6027 27.6488V30.862H67.554V22.5234Z" fill="#808080"/>
<path d="M74.0636 24.8033H75.0598V25.6631C75.355 25.3086 75.6677 25.054 75.9978 24.8994C76.3279 24.7448 76.695 24.6675 77.0989 24.6675C77.9845 24.6675 78.5826 24.9673 78.8933 25.567C79.0642 25.8951 79.1497 26.3646 79.1497 26.9756V30.862H78.0835V27.0435C78.0835 26.6739 78.0272 26.3759 77.9146 26.1496C77.7281 25.7725 77.3902 25.5839 76.9008 25.5839C76.6523 25.5839 76.4483 25.6084 76.2891 25.6575C76.0017 25.7404 75.7492 25.9064 75.5317 26.1553C75.3569 26.3552 75.2424 26.5626 75.188 26.7776C75.1375 26.9888 75.1122 27.2924 75.1122 27.6884V30.862H74.0636V24.8033Z" fill="#808080"/>
<path d="M83.0491 30.2058C83.7444 30.2058 84.2202 29.9512 84.4765 29.4421C84.7367 28.9292 84.8669 28.3597 84.8669 27.7336C84.8669 27.1679 84.7736 26.7078 84.5872 26.3533C84.292 25.7951 83.7832 25.516 83.0608 25.516C82.4199 25.516 81.9538 25.7536 81.6625 26.2288C81.3712 26.704 81.2256 27.2773 81.2256 27.9486C81.2256 28.5935 81.3712 29.1309 81.6625 29.5609C81.9538 29.9908 82.416 30.2058 83.0491 30.2058ZM83.0899 24.6279C83.8939 24.6279 84.5736 24.8881 85.129 25.4086C85.6844 25.929 85.9622 26.6946 85.9622 27.7053C85.9622 28.6821 85.7175 29.4892 85.2281 30.1266C84.7387 30.764 83.9794 31.0826 82.9501 31.0826C82.0917 31.0826 81.4101 30.8017 80.9052 30.2397C80.4002 29.674 80.1478 28.916 80.1478 27.9656C80.1478 26.9473 80.4138 26.1364 80.9459 25.533C81.4781 24.9296 82.1927 24.6279 83.0899 24.6279Z" fill="#808080"/>
<path d="M87.2552 22.5517H88.3039V30.862H87.2552V22.5517Z" fill="#808080"/>
<path d="M92.2267 30.2058C92.9219 30.2058 93.3977 29.9512 93.654 29.4421C93.9143 28.9292 94.0444 28.3597 94.0444 27.7336C94.0444 27.1679 93.9512 26.7078 93.7647 26.3533C93.4695 25.7951 92.9607 25.516 92.2383 25.516C91.5975 25.516 91.1314 25.7536 90.8401 26.2288C90.5488 26.704 90.4031 27.2773 90.4031 27.9486C90.4031 28.5935 90.5488 29.1309 90.8401 29.5609C91.1314 29.9908 91.5936 30.2058 92.2267 30.2058ZM92.2674 24.6279C93.0714 24.6279 93.7511 24.8881 94.3066 25.4086C94.862 25.929 95.1397 26.6946 95.1397 27.7053C95.1397 28.6821 94.895 29.4892 94.4056 30.1266C93.9162 30.764 93.1569 31.0826 92.1276 31.0826C91.2693 31.0826 90.5876 30.8017 90.0827 30.2397C89.5778 29.674 89.3253 28.916 89.3253 27.9656C89.3253 26.9473 89.5914 26.1364 90.1235 25.533C90.6556 24.9296 91.3702 24.6279 92.2674 24.6279Z" fill="#808080"/>
<path d="M98.8928 24.6958C99.3822 24.6958 99.8094 24.8127 100.175 25.0465C100.373 25.1785 100.575 25.3708 100.78 25.6235V24.8598H101.748V30.3698C101.748 31.1392 101.631 31.7464 101.398 32.1914C100.963 33.0136 100.142 33.4247 98.9336 33.4247C98.2617 33.4247 97.6965 33.2776 97.2382 32.9834C96.7799 32.693 96.5236 32.2367 96.4692 31.6144H97.5353C97.5858 31.8859 97.6868 32.0953 97.8383 32.2423C98.0752 32.4686 98.4481 32.5818 98.9569 32.5818C99.7609 32.5818 100.287 32.3065 100.536 31.7558C100.683 31.4315 100.751 30.8526 100.74 30.0191C100.53 30.3284 100.277 30.5584 99.9823 30.7093C99.6871 30.8601 99.2967 30.9355 98.8112 30.9355C98.1354 30.9355 97.5431 30.7036 97.0343 30.2397C96.5294 29.7721 96.2769 29.0008 96.2769 27.926C96.2769 26.9115 96.5313 26.1195 97.0401 25.55C97.5528 24.9805 98.1704 24.6958 98.8928 24.6958ZM100.78 27.8072C100.78 27.0567 100.621 26.5004 100.303 26.1383C99.9842 25.7763 99.5783 25.5952 99.0851 25.5952C98.3471 25.5952 97.8422 25.9309 97.5703 26.6022C97.4266 26.9605 97.3547 27.43 97.3547 28.0108C97.3547 28.6935 97.4965 29.2139 97.78 29.5722C98.0674 29.9267 98.452 30.104 98.9336 30.104C99.6871 30.104 100.217 29.774 100.524 29.114C100.695 28.7406 100.78 28.305 100.78 27.8072Z" fill="#808080"/>
<path d="M102.913 24.8315H103.979V30.862H102.913V24.8315ZM102.913 22.5517H103.979V23.7058H102.913V22.5517Z" fill="#808080"/>
<path d="M107.893 24.6675C108.335 24.6675 108.765 24.7693 109.18 24.973C109.596 25.1728 109.912 25.4331 110.13 25.7536C110.34 26.0591 110.479 26.4155 110.549 26.8228C110.611 27.1019 110.642 27.5469 110.642 28.1579H106.069C106.088 28.7727 106.238 29.2667 106.518 29.6401C106.797 30.0097 107.23 30.1945 107.817 30.1945C108.364 30.1945 108.801 30.0191 109.128 29.6684C109.314 29.4647 109.446 29.229 109.524 28.9612H110.555C110.528 29.1837 110.437 29.4326 110.281 29.708C110.13 29.9795 109.959 30.202 109.769 30.3755C109.45 30.6772 109.056 30.8809 108.586 30.9865C108.333 31.0468 108.048 31.077 107.729 31.077C106.953 31.077 106.294 30.8036 105.754 30.2567C105.215 29.7061 104.945 28.9367 104.945 27.9486C104.945 26.9756 105.217 26.1855 105.76 25.5783C106.304 24.9711 107.015 24.6675 107.893 24.6675ZM109.565 27.3489C109.522 26.9077 109.423 26.5551 109.268 26.2911C108.98 25.8008 108.5 25.5556 107.829 25.5556C107.347 25.5556 106.943 25.7254 106.617 26.0648C106.29 26.4004 106.118 26.8285 106.098 27.3489H109.565Z" fill="#808080"/>
<path d="M112.858 28.9612C112.889 29.3006 112.976 29.5609 113.12 29.7419C113.384 30.07 113.842 30.2341 114.495 30.2341C114.883 30.2341 115.225 30.153 115.52 29.9908C115.815 29.8249 115.963 29.5703 115.963 29.2271C115.963 28.9669 115.844 28.7689 115.607 28.6331C115.456 28.5501 115.157 28.454 114.71 28.3446L113.877 28.1409C113.345 28.0127 112.953 27.8694 112.7 27.711C112.25 27.4357 112.024 27.0548 112.024 26.5683C112.024 25.995 112.236 25.5311 112.659 25.1766C113.087 24.8221 113.66 24.6449 114.378 24.6449C115.318 24.6449 115.996 24.9126 116.411 25.4482C116.672 25.7876 116.798 26.1534 116.79 26.5456H115.8C115.78 26.3156 115.697 26.1063 115.549 25.9177C115.308 25.6499 114.891 25.516 114.297 25.516C113.9 25.516 113.599 25.5896 113.394 25.7367C113.192 25.8838 113.091 26.078 113.091 26.3194C113.091 26.5834 113.225 26.7945 113.493 26.9529C113.648 27.0472 113.877 27.1302 114.18 27.2019L114.873 27.3659C115.627 27.5432 116.132 27.7148 116.388 27.8807C116.796 28.1409 117 28.5501 117 29.1083C117 29.6476 116.788 30.1134 116.365 30.5056C115.945 30.8978 115.304 31.0939 114.442 31.0939C113.514 31.0939 112.856 30.8903 112.467 30.483C112.083 30.0719 111.877 29.5646 111.85 28.9612H112.858Z" fill="#808080"/>
<path d="M11.32 11.6392C11.3217 11.6481 11.3147 11.6564 11.3054 11.6564H4.32667C4.31806 11.6564 4.31124 11.6493 4.31185 11.641C4.33311 11.35 4.39347 11.021 4.4929 10.6541C4.61433 10.2808 4.80659 9.92703 5.06969 9.59296C5.35303 9.25888 5.71732 8.98376 6.16256 8.76759C6.62804 8.53177 7.20483 8.41386 7.89293 8.41386C8.94532 8.41386 9.7245 8.68898 10.2305 9.23923C10.7538 9.7865 11.117 10.5865 11.32 11.6392ZM4.31145 14.3245C4.31107 14.3163 4.31783 14.3093 4.32631 14.3093H15.5783C15.6097 14.3093 15.6357 14.2857 15.6377 14.2553C15.7119 13.0957 15.6095 11.9837 15.3305 10.9194C15.0472 9.8386 14.5817 8.87568 13.9341 8.03066C13.3067 7.18565 12.4971 6.51749 11.5055 6.02621C10.5138 5.51527 9.35009 5.2598 8.01436 5.2598C6.8203 5.2598 5.72744 5.46614 4.73576 5.87882C3.76432 6.2915 2.92443 6.8614 2.21609 7.5885C1.50775 8.29596 0.961319 9.14097 0.576791 10.1235C0.192264 11.1061 0 12.1673 0 13.3071C0 14.4862 0.182145 15.567 0.546434 16.5496C0.930961 17.5322 1.46728 18.3772 2.15538 19.0846C2.84348 19.7921 3.68337 20.3423 4.67504 20.7354C5.66672 21.1087 6.77983 21.2954 8.01436 21.2954C9.79533 21.2954 11.3132 20.9024 12.568 20.1163C13.8053 19.3412 14.7278 18.0596 15.3354 16.2717C15.3481 16.2344 15.3195 16.1959 15.279 16.1959H11.6109C11.5844 16.1959 11.5612 16.2129 11.5531 16.2373C11.4017 16.694 11.0216 17.1322 10.4126 17.5518C9.78521 17.9645 9.0364 18.1708 8.16615 18.1708C6.95185 18.1708 6.02089 17.8662 5.37327 17.257C4.72806 16.6501 4.37412 15.6726 4.31145 14.3245Z" fill="black"/>
<path d="M21.2872 12.8944L15.7045 20.8217C15.6774 20.8601 15.7057 20.9122 15.7536 20.9122H20.4356C20.4555 20.9122 20.4742 20.9025 20.4852 20.8863L23.7337 16.1256C23.7396 16.117 23.7527 16.117 23.7586 16.1256L27.0071 20.8863C27.0181 20.9025 27.0368 20.9122 27.0567 20.9122H31.8287C31.8768 20.9122 31.9051 20.8597 31.8777 20.8214L26.1444 12.806L31.2392 5.76358C31.267 5.72525 31.2387 5.67248 31.1905 5.67248H26.5709C26.551 5.67248 26.5324 5.68215 26.5213 5.69824L23.8192 9.63396C23.8133 9.64252 23.8004 9.64255 23.7944 9.63402L21.0621 5.69799C21.051 5.68204 21.0325 5.67248 21.0126 5.67248H16.2403C16.1922 5.67248 16.1639 5.72494 16.1913 5.76331L21.2872 12.8944Z" fill="black"/>
<path d="M40.5979 18.1708C39.9097 18.1708 39.3228 18.0333 38.8371 17.7582C38.3514 17.483 37.9567 17.1293 37.6532 16.697C37.3698 16.245 37.1573 15.7242 37.0157 15.1347C36.8942 14.5451 36.8335 13.9458 36.8335 13.3366C36.8335 12.7077 36.8942 12.0985 37.0157 11.509C37.1371 10.9194 37.3395 10.3987 37.6228 9.94668C37.9264 9.4947 38.3109 9.13114 38.7764 8.85602C39.2621 8.56125 39.8591 8.41386 40.5675 8.41386C41.2556 8.41386 41.8324 8.56125 42.2979 8.85602C42.7836 9.13114 43.1782 9.50452 43.4818 9.97616C43.7854 10.4281 43.9979 10.9489 44.1193 11.5385C44.261 12.128 44.3318 12.7274 44.3318 13.3366C44.3318 13.9458 44.2711 14.5451 44.1497 15.1347C44.0282 15.7242 43.8157 16.245 43.5122 16.697C43.2288 17.1293 42.8443 17.483 42.3586 17.7582C41.8931 18.0333 41.3062 18.1708 40.5979 18.1708ZM32.7341 5.67248C32.7012 5.67248 32.6746 5.69838 32.6746 5.73033V26.1898C32.6746 26.2217 32.7012 26.2476 32.7341 26.2476H36.9257C36.9586 26.2476 36.9853 26.2217 36.9853 26.1898V19.0643C36.9853 19.043 37.0031 19.0257 37.0251 19.0257C37.0382 19.0257 37.0505 19.032 37.0579 19.0425C37.5823 19.781 38.2462 20.3453 39.0496 20.7354C39.8794 21.1087 40.78 21.2954 41.7514 21.2954C42.905 21.2954 43.9068 21.0793 44.7568 20.6469C45.6271 20.2146 46.3455 19.6349 46.9122 18.9078C47.4991 18.1807 47.9342 17.3455 48.2176 16.4022C48.5009 15.4589 48.6426 14.4764 48.6426 13.4545C48.6426 12.3736 48.5009 11.3419 48.2176 10.3594C47.9342 9.35714 47.4991 8.48265 46.9122 7.73589C46.3253 6.98913 45.5866 6.38976 44.6961 5.93777C43.8056 5.48579 42.7431 5.2598 41.5086 5.2598C40.5371 5.2598 39.6466 5.44649 38.8371 5.81986C38.0335 6.19053 37.3694 6.78391 36.845 7.60001C36.8379 7.61114 36.8253 7.61798 36.8118 7.61798C36.7903 7.61798 36.7728 7.60103 36.7728 7.58012V5.73033C36.7728 5.69838 36.7461 5.67248 36.7132 5.67248H32.7341Z" fill="black"/>
<path d="M60.8491 11.6392C60.8508 11.6481 60.8438 11.6564 60.8345 11.6564H53.8558C53.8472 11.6564 53.8403 11.6493 53.841 11.641C53.8622 11.35 53.9226 11.021 54.022 10.6541C54.1434 10.2808 54.3357 9.92703 54.5988 9.59296C54.8821 9.25888 55.2464 8.98376 55.6917 8.76759C56.1572 8.53177 56.7339 8.41386 57.422 8.41386C58.4744 8.41386 59.2536 8.68898 59.7596 9.23923C60.2829 9.7865 60.6461 10.5865 60.8491 11.6392ZM53.8406 14.3245C53.8402 14.3163 53.8469 14.3093 53.8554 14.3093H65.1074C65.1388 14.3093 65.1648 14.2857 65.1668 14.2553C65.241 13.0957 65.1386 11.9837 64.8596 10.9194C64.5763 9.8386 64.1108 8.87568 63.4632 8.03066C62.8358 7.18565 62.0263 6.51749 61.0346 6.02621C60.0429 5.51527 58.8792 5.2598 57.5435 5.2598C56.3494 5.2598 55.2565 5.46614 54.2649 5.87882C53.2934 6.2915 52.4535 6.8614 51.7452 7.5885C51.0369 8.29596 50.4904 9.14097 50.1059 10.1235C49.7214 11.1061 49.5291 12.1673 49.5291 13.3071C49.5291 14.4862 49.7113 15.567 50.0756 16.5496C50.4601 17.5322 50.9964 18.3772 51.6845 19.0846C52.3726 19.7921 53.2125 20.3423 54.2042 20.7354C55.1958 21.1087 56.3089 21.2954 57.5435 21.2954C59.3244 21.2954 60.8423 20.9024 62.0971 20.1163C63.3344 19.3412 64.2569 18.0596 64.8645 16.2717C64.8772 16.2344 64.8486 16.1959 64.8082 16.1959H61.14C61.1135 16.1959 61.0903 16.2129 61.0822 16.2373C60.9308 16.694 60.5507 17.1322 59.9417 17.5518C59.3143 17.9645 58.5655 18.1708 57.6953 18.1708C56.481 18.1708 55.55 17.8662 54.9024 17.257C54.2572 16.6501 53.9032 15.6726 53.8406 14.3245Z" fill="black"/>
<path d="M66.8687 5.67248C66.8358 5.67248 66.8091 5.69838 66.8091 5.73033V20.8544C66.8091 20.8863 66.8358 20.9122 66.8687 20.9122H71.0603C71.0932 20.9122 71.1199 20.8863 71.1199 20.8544V14.044C71.1199 13.3562 71.1907 12.7175 71.3324 12.128C71.4741 11.5385 71.7068 11.0275 72.0306 10.5952C72.3747 10.1432 72.8199 9.78947 73.3663 9.534C73.9128 9.27853 74.5807 9.15079 75.3699 9.15079C75.633 9.15079 75.9062 9.17045 76.1896 9.20975C76.4404 9.22714 76.6594 9.25223 76.8468 9.28502C76.8838 9.2915 76.9182 9.26412 76.9182 9.22762V5.45047C76.9182 5.42481 76.9007 5.40216 76.8753 5.39516C76.548 5.30492 76.2486 5.2598 75.9771 5.2598C75.4306 5.2598 74.9044 5.3384 74.3985 5.49561C73.8925 5.65283 73.4169 5.87882 72.9717 6.17359C72.5265 6.44871 72.1318 6.79261 71.7878 7.2053C71.449 7.59228 71.1789 8.01736 70.9775 8.48054C70.9718 8.4937 70.9585 8.5023 70.9438 8.5023C70.9237 8.5023 70.9074 8.48646 70.9074 8.46692V5.73033C70.9074 5.69838 70.8807 5.67248 70.8478 5.67248H66.8687Z" fill="black"/>
<path d="M88.4383 13.3071C88.4383 12.6979 88.499 12.0985 88.6205 11.509C88.7419 10.9194 88.9443 10.3987 89.2276 9.94668C89.5312 9.4947 89.9258 9.13114 90.4116 8.85602C90.8973 8.56125 91.5044 8.41386 92.233 8.41386C92.9616 8.41386 93.5687 8.56125 94.0544 8.85602C94.5604 9.13114 94.955 9.4947 95.2384 9.94668C95.542 10.3987 95.7545 10.9194 95.8759 11.509C95.9973 12.0985 96.058 12.6979 96.058 13.3071C96.058 13.9163 95.9973 14.5157 95.8759 15.1052C95.7545 15.6751 95.542 16.1959 95.2384 16.6675C94.955 17.1195 94.5604 17.483 94.0544 17.7582C93.5687 18.0333 92.9616 18.1708 92.233 18.1708C91.5044 18.1708 90.8973 18.0333 90.4116 17.7582C89.9258 17.483 89.5312 17.1195 89.2276 16.6675C88.9443 16.1959 88.7419 15.6751 88.6205 15.1052C88.499 14.5157 88.4383 13.9163 88.4383 13.3071ZM84.1276 13.3071C84.1276 14.5255 84.3198 15.626 84.7044 16.6085C85.0889 17.5911 85.6353 18.4361 86.3437 19.1436C87.052 19.8314 87.902 20.362 88.8937 20.7354C89.8854 21.1087 90.9985 21.2954 92.233 21.2954C93.4675 21.2954 94.5807 21.1087 95.5723 20.7354C96.5842 20.362 97.4444 19.8314 98.1527 19.1436C98.861 18.4361 99.4075 17.5911 99.792 16.6085C100.177 15.626 100.369 14.5255 100.369 13.3071C100.369 12.0887 100.177 10.9882 99.792 10.0056C99.4075 9.00341 98.861 8.15839 98.1527 7.47059C97.4444 6.76314 96.5842 6.22272 95.5723 5.84934C94.5807 5.45631 93.4675 5.2598 92.233 5.2598C90.9985 5.2598 89.8854 5.45631 88.8937 5.84934C87.902 6.22272 87.052 6.76314 86.3437 7.47059C85.6353 8.15839 85.0889 9.00341 84.7044 10.0056C84.3198 10.9882 84.1276 12.0887 84.1276 13.3071Z" fill="black"/>
<path d="M102.32 5.67248C102.288 5.67248 102.261 5.69838 102.261 5.73033V20.8544C102.261 20.8863 102.288 20.9122 102.32 20.9122H106.512C106.545 20.9122 106.572 20.8863 106.572 20.8544V12.9239C106.572 11.3714 106.835 10.2611 107.361 9.59296C107.887 8.90515 108.737 8.56125 109.911 8.56125C110.943 8.56125 111.662 8.87567 112.066 9.50452C112.471 10.1137 112.674 11.0472 112.674 12.3049V20.8544C112.674 20.8863 112.7 20.9122 112.733 20.9122H116.925C116.958 20.9122 116.984 20.8863 116.984 20.8544V11.5385C116.984 10.5952 116.893 9.74034 116.711 8.97393C116.549 8.18787 116.256 7.52955 115.831 6.99896C115.406 6.44871 114.819 6.02621 114.07 5.73143C113.341 5.41701 112.4 5.2598 111.247 5.2598C110.336 5.2598 109.446 5.46614 108.575 5.87882C107.714 6.26777 107.011 6.8973 106.467 7.7674C106.457 7.78435 106.438 7.79484 106.417 7.79484C106.385 7.79484 106.359 7.76956 106.359 7.73838V5.73033C106.359 5.69838 106.333 5.67248 106.3 5.67248H102.32Z" fill="black"/>
<path d="M78.2559 0.0184287C78.2559 0.00825073 78.2641 0 78.2743 0H82.548C82.5582 0 82.5664 0.0082509 82.5664 0.0184289V3.10921L78.2559 4.62766V0.0184287Z" fill="#DC143C"/>
<path d="M82.5664 5.59961H78.2559V20.8533C78.2559 20.8854 78.2825 20.9113 78.3154 20.9113H82.5071C82.5399 20.9113 82.5666 20.8854 82.5666 20.8533V5.69726C82.5666 5.6957 82.5665 5.69387 82.5664 5.6923V5.59961Z" fill="black"/>
</svg>
