<svg width="14" height="15" viewBox="0 0 14 15" fill="none" xmlns="http://www.w3.org/2000/svg">
<path d="M7.0026 0.835938C3.32927 0.835938 0.335938 3.82927 0.335938 7.5026C0.335938 11.1759 3.32927 14.1693 7.0026 14.1693C10.6759 14.1693 13.6693 11.1759 13.6693 7.5026C13.6693 3.82927 10.6759 0.835938 7.0026 0.835938ZM8.8626 7.85594L6.50927 10.2093C6.40927 10.3093 6.2826 10.3559 6.15594 10.3559C6.02927 10.3559 5.9026 10.3093 5.8026 10.2093C5.60927 10.0159 5.60927 9.69594 5.8026 9.5026L7.8026 7.5026L5.8026 5.5026C5.60927 5.30927 5.60927 4.98927 5.8026 4.79594C5.99594 4.6026 6.31594 4.6026 6.50927 4.79594L8.8626 7.14927C9.0626 7.3426 9.0626 7.6626 8.8626 7.85594Z" fill="#16B24E"/>
</svg>
